<svg height="297mm" width="210mm" xmlns="http://www.w3.org/2000/svg" xmlns:xlink="http://www.w3.org/1999/xlink"><linearGradient id="a"><stop offset="0"/><stop offset="1" stop-opacity="0"/></linearGradient><linearGradient id="b"><stop offset="0" stop-color="#fff"/><stop offset="1" stop-color="#fff" stop-opacity="0"/></linearGradient><linearGradient id="c" gradientTransform="matrix(16.967762 0 0 27.050244 -46.83702 137.47147)" gradientUnits="userSpaceOnUse" x1="14.584077" x2="14.552828" xlink:href="#a" y1="1.639265" y2="2.491245"/><linearGradient id="d" gradientTransform="matrix(16.967762 0 0 20.103676 -46.83702 138.52975)" gradientUnits="userSpaceOnUse" x1="13.354311" x2="14.075844" xlink:href="#b" y1="1.486643" y2="2.401765"/><linearGradient id="e" gradientTransform="matrix(22.389793 0 0 21.724776 -144.32174 155.10518)" gradientUnits="userSpaceOnUse" x1="19.970377" x2="19.970377" xlink:href="#b" y1="6.116711" y2="2.53125"/><linearGradient id="f" gradientTransform="matrix(-22.389793 0 0 23.11111 638.46595 144.7369)" gradientUnits="userSpaceOnUse" x1="16.8125" x2="16.8125" xlink:href="#b" y1="1.875" y2="4.71875"/><linearGradient id="g" gradientTransform="matrix(22.389793 0 0 22.041343 -99.54228 128.20839)" gradientUnits="userSpaceOnUse" x1="18.431311" x2="18.402472" y1="19.119474" y2="4.270233"><stop offset="0" stop-color="#729fcf"/><stop offset="1" stop-color="#3465a4"/></linearGradient><linearGradient id="h" gradientTransform="matrix(20.772867 0 0 21.755657 -40.532308 155.37076)" gradientUnits="userSpaceOnUse" x1="19.452349" x2="19.685436" xlink:href="#a" y1="13.174174" y2="27.095339"/><radialGradient id="i" cx="8.143557" cy="7.267897" gradientTransform="matrix(16.510192 0 0 17.560565 6.929744 160.30189)" gradientUnits="userSpaceOnUse" r="38.158695"><stop offset="0" stop-color="#fff"/><stop offset="1" stop-color="#f8f8f8"/></radialGradient><radialGradient id="j" cx="33.966679" cy="35.736916" gradientTransform="matrix(16.297417 0 0 17.727392 -48.594034 148.17911)" gradientUnits="userSpaceOnUse" r="86.70845"><stop offset="0" stop-color="#fff"/><stop offset="1" stop-color="#babdb6" stop-opacity="0"/></radialGradient><radialGradient id="k" cx="8.824419" cy="3.756129" gradientTransform="matrix(16.429426 0 0 17.584947 8.308205 159.18626)" gradientUnits="userSpaceOnUse" r="37.751713"><stop offset="0" stop-color="#888a85"/><stop offset="1" stop-color="#555753"/></radialGradient><radialGradient id="l" cx="605.71429" cy="486.64789" gradientTransform="matrix(-1.0192489 0 0 .4965576 724.33207 655.10373)" gradientUnits="userSpaceOnUse" r="117.14286" xlink:href="#a"/><radialGradient id="m" cx="605.71429" cy="486.64789" gradientTransform="matrix(1.0192489 0 0 .4965576 -12.03827 655.10373)" gradientUnits="userSpaceOnUse" r="117.14286" xlink:href="#a"/><linearGradient id="n" gradientTransform="matrix(1.0192489 0 0 .4965576 -12.238858 655.10373)" gradientUnits="userSpaceOnUse" x1="302.85715" x2="302.85715" y1="366.64789" y2="609.50507"><stop offset="0" stop-opacity="0"/><stop offset=".5"/><stop offset="1" stop-opacity="0"/></linearGradient><path d="m-64.879845 115.85568h850v850h-850z" fill="none"/><path d="m110.07101 837.16553h492.15161v120.59255h-492.15161z" fill="url(#n)" opacity=".402062"/><path d="m602.22264 837.16966v120.5859c52.4888.227 126.89238-27.01718 126.89235-60.30071 0-33.28353-58.57355-60.28518-126.89235-60.28519z" fill="url(#m)" opacity=".402062"/><path d="m110.07102 837.16966v120.5859c-52.488809.227-126.892365-27.01718-126.892365-60.30071s58.573541-60.28518 126.892365-60.28519z" fill="url(#l)" opacity=".402062"/><rect height="696.75452" rx="19.496782" ry="19.496775" style="stroke-width:16.967758;stroke-linecap:round;stroke-linejoin:round;display:block;fill:url(#j);stroke:url(#k)" width="591.75067" x="63.453434" y="210.26743"/><rect height="662.22137" rx="2.52902" ry="2.529019" style="fill:none;stroke-width:16.967754;stroke-linecap:round;stroke-linejoin:round;display:block;stroke:url(#i)" width="558.86737" x="80.462883" y="227.25279"/><path d="m148.38947 244.10571v643.19017" fill="none" stroke="#000" stroke-opacity=".017544" stroke-width="16.773535"/><path d="m165.26001 236.06706v645.07546" fill="none" stroke="#fff" stroke-opacity=".204678" stroke-width="16.967762"/><g fill="#babdb6"><rect display="block" height="16.967762" rx="2.337925" ry="1.109537" width="339.35535" x="224.64708" y="303.59009"/><rect display="block" height="16.967762" rx="2.337925" ry="1.109537" width="339.35535" x="224.64708" y="337.52563"/><rect display="block" height="16.967762" rx="2.337925" ry="1.109537" width="339.35535" x="224.64708" y="371.46115"/><rect display="block" height="16.967762" rx="2.337925" ry="1.109537" width="339.35535" x="224.64708" y="405.39667"/><rect display="block" height="16.967762" rx="2.337925" ry="1.109537" width="339.35535" x="224.64708" y="439.33218"/><rect display="block" height="16.967762" rx="2.337925" ry="1.109537" width="339.35535" x="224.64708" y="473.26773"/><rect display="block" height="16.967762" rx="2.337925" ry="1.109537" width="339.35535" x="224.64708" y="507.20325"/><rect display="block" height="16.967762" rx="2.337925" ry="1.109537" width="339.35535" x="224.64708" y="541.13879"/><rect display="block" height="16.967762" rx="1.052067" ry="1.109537" width="152.70996" x="224.64693" y="575.07428"/><rect display="block" height="16.967762" rx="2.337925" ry="1.109537" width="339.35535" x="224.64693" y="642.94531"/><rect display="block" height="16.967762" rx="2.337925" ry="1.109537" width="339.35535" x="224.64693" y="676.88086"/><rect display="block" height="16.967762" rx="2.337925" ry="1.109537" width="339.35535" x="224.64693" y="710.81641"/><rect display="block" height="16.967762" rx="2.337925" ry="1.109537" width="339.35535" x="224.64693" y="744.75189"/><rect display="block" height="16.967762" rx="1.636549" ry="1.109537" width="237.5489" x="224.64693" y="778.68744"/></g><path d="m432.43201 682.39369-120.437-71.11528-116.06459 63.6308-9.25947-457.04771h250.91485z" fill="url(#h)" fill-rule="evenodd" opacity=".28022"/><path d="m164.02713 210.57317s-3.17806-49.42404 45.48259-50.48452l169.87242-.601c19.64765 0 24.81603 11.60137 24.81603 27.18694v468.65569l-102.42522-88.16534-99.61909 88.16534-1.40307-444.72979z" fill="url(#g)" fill-rule="evenodd" stroke="#204a87" stroke-width="16.96776"/><path d="m174.25733 201.98358c-.32595-13.34396 4.79611-32.77595 39.79212-33.83643l163.78115-.29914c10.40158 0 18.02401 2.84091 18.02401 13.56538l-.49478 147.49007h-182.29977l-2.12097-127.13147s-36.68176.21159-36.68176.21159z" fill="url(#f)" fill-rule="evenodd" opacity=".445055"/><path d="m368.48018 188.37136 18.64248 15.3319-.47662 413.99252-85.68687-73.09983-81.33293 71.45888-.08484-418.52071z" fill="none" stroke="url(#e)" stroke-opacity=".191257" stroke-width="16.967764"/><path d="m210.37067 217.70608-.74998-49.28948c-36.14981 0-35.99405 32.82515-35.99405 49.28948h36.74403z" fill="url(#d)" opacity=".482955"/><path d="m210.37067 217.70608-.74998-35.86374c-38.99361.30423-35.99405 35.86374-35.99405 35.86374h36.74403z" fill="url(#c)" opacity=".357955"/></svg>